<?xml version="1.0" encoding="utf-8"?>
<!-- Generator: Adobe Illustrator 23.1.0, SVG Export Plug-In . SVG Version: 6.00 Build 0)  -->
<svg version="1.1" id="Layer_1" xmlns="http://www.w3.org/2000/svg" xmlns:xlink="http://www.w3.org/1999/xlink" x="0px" y="0px"
	 viewBox="0 0 947.5 983.5" style="enable-background:new 0 0 947.5 983.5;" xml:space="preserve">
<style type="text/css">
	.st0{fill:#005597;}
	.st1{fill:#FFFFFF;}
	.st2{fill:#BFE5FB;}
	.st3{fill:#00AFEA;}
	.st4{fill:#164194;}
	.st5{fill:#FFED00;}
	.st6{fill:none;stroke:#164194;stroke-miterlimit:10;}
	.st7{fill:url(#SVGID_1_);}
	.st8{fill:url(#SVGID_2_);}
	.st9{fill:url(#SVGID_3_);}
	.st10{fill:#E0E0DF;}
	.st11{fill:url(#SVGID_4_);}
	.st12{fill:url(#SVGID_5_);}
	.st13{fill:url(#SVGID_6_);}
	.st14{fill:url(#SVGID_7_);}
	.st15{fill:url(#SVGID_8_);}
	.st16{fill:url(#SVGID_9_);}
	.st17{fill:#FFFFFF;stroke:#706F6F;stroke-miterlimit:10;}
	.st18{fill:url(#SVGID_10_);}
	.st19{fill:url(#SVGID_11_);}
	.st20{fill:url(#SVGID_12_);}
	.st21{fill:url(#SVGID_13_);}
	.st22{fill:url(#SVGID_14_);}
	.st23{fill:url(#SVGID_15_);}
	.st24{fill:url(#SVGID_16_);}
	.st25{fill:url(#SVGID_17_);}
	.st26{fill:url(#SVGID_18_);}
	.st27{fill:url(#SVGID_19_);}
	.st28{fill:url(#SVGID_20_);}
	.st29{fill:url(#SVGID_21_);}
	.st30{fill:#016A88;}
	.st31{fill:#B2B2B2;}
	.st32{fill:url(#SVGID_22_);}
	.st33{fill:url(#SVGID_23_);}
	.st34{fill:url(#SVGID_24_);}
	.st35{fill:url(#SVGID_25_);}
	.st36{fill:url(#SVGID_26_);}
	.st37{fill:url(#SVGID_27_);}
</style>
<g>
	<linearGradient id="SVGID_1_" gradientUnits="userSpaceOnUse" x1="786.6191" y1="933.2238" x2="551.9255" y2="670.2717">
		<stop  offset="0" style="stop-color:#008CB5"/>
		<stop  offset="0.9138" style="stop-color:#006988"/>
	</linearGradient>
	<polygon class="st7" points="517.1,753.5 721.9,980.9 938.3,980.9 625.3,633.3 	"/>
	<linearGradient id="SVGID_2_" gradientUnits="userSpaceOnUse" x1="159.8189" y1="228.5909" x2="403.554" y2="480.0436">
		<stop  offset="0" style="stop-color:#008CB5"/>
		<stop  offset="0.7576" style="stop-color:#006988"/>
	</linearGradient>
	<polygon class="st8" points="382.6,347.8 248.6,199 32.4,199.3 274.5,468.1 	"/>
	<linearGradient id="SVGID_3_" gradientUnits="userSpaceOnUse" x1="299.5788" y1="715.8751" x2="926.6622" y2="19.8707">
		<stop  offset="0" style="stop-color:#33A3C4"/>
		<stop  offset="0.7085" style="stop-color:#52AE32"/>
	</linearGradient>
	<path class="st9" d="M618.3,112.6l83.2,39L3.6,894.5h274l542.9-634.8l46.2,76.3L940.5,4L618.3,112.6z M196,852.5h-42.8l66.2-73.6
		h42.8L196,852.5z M328.5,705.4h-42.8l66.2-73.6h42.8L328.5,705.4z M461,558.3h-42.8l66.2-73.6h42.8L461,558.3z M593.5,411.2h-42.8
		l66.2-73.6h42.8L593.5,411.2z M726,264h-42.8l66.2-73.6h42.8L726,264z"/>
</g>
</svg>
