<?xml version="1.0" encoding="utf-8"?>
<!-- Generator: Adobe Illustrator 15.1.0, SVG Export Plug-In . SVG Version: 6.00 Build 0)  -->
<!DOCTYPE svg PUBLIC "-//W3C//DTD SVG 1.1//EN" "http://www.w3.org/Graphics/SVG/1.1/DTD/svg11.dtd">
<svg version="1.1" id="Layer_1" xmlns="http://www.w3.org/2000/svg" xmlns:xlink="http://www.w3.org/1999/xlink" x="0px" y="0px"
	 width="90.5px" height="97.167px" viewBox="0 0 90.5 97.167" enable-background="new 0 0 90.5 97.167" xml:space="preserve">
<g>
	<polygon fill="#005597" points="18.95,37.332 18.896,40.313 25.458,40.293 25.465,43.254 30.913,43.254 30.913,40.293 
		59.933,40.293 59.933,43.373 65.974,43.373 66.021,40.293 72.396,40.25 72.396,37.342 	"/>
	<polygon fill="#005597" points="44.653,18.972 44.653,35.555 35.651,35.555 41.337,18.972 	"/>
	<polygon fill="#005597" points="46.903,18.972 46.903,35.673 55.432,35.673 50.208,18.984 	"/>
	<polygon fill="#005597" points="33.146,43.313 43.771,43.313 43.771,71.125 23.208,71.125 	"/>
	<polygon fill="#005597" points="48.083,43.313 57.896,43.313 68.271,71.063 48.208,71.125 	"/>
	<path fill="#005597" d="M45.565,95.136c-1.664,0-3.246-0.387-4.455-1.089L8.46,75.098c-2.482-1.44-4.421-4.816-4.415-7.688
		l0.086-37.75c0.007-2.87,1.961-6.238,4.45-7.667L41.318,3.193c1.199-0.688,2.766-1.068,4.411-1.068
		c1.664,0,3.245,0.386,4.454,1.088l32.647,18.95c2.483,1.441,4.422,4.818,4.415,7.688l-0.085,37.75
		c-0.007,2.871-1.962,6.239-4.45,7.667L49.975,94.068C48.775,94.757,47.209,95.136,45.565,95.136z M45.729,5.125
		c-1.113,0-2.176,0.244-2.917,0.669L10.076,24.595c-1.564,0.898-2.94,3.269-2.944,5.072l-0.086,37.75
		c-0.004,1.804,1.36,4.18,2.92,5.086l32.649,18.949c1.487,0.861,4.375,0.869,5.865,0.014l32.735-18.801
		c1.564-0.897,2.939-3.268,2.944-5.072l0.085-37.75c0.005-1.804-1.36-4.18-2.921-5.085L48.677,5.808
		C47.93,5.374,46.854,5.125,45.729,5.125z"/>
</g>
</svg>
