<?xml version="1.0" encoding="utf-8"?>
<!-- Generator: Adobe Illustrator 15.1.0, SVG Export Plug-In . SVG Version: 6.00 Build 0)  -->
<!DOCTYPE svg PUBLIC "-//W3C//DTD SVG 1.1//EN" "http://www.w3.org/Graphics/SVG/1.1/DTD/svg11.dtd">
<svg version="1.1" id="Layer_1" xmlns="http://www.w3.org/2000/svg" xmlns:xlink="http://www.w3.org/1999/xlink" x="0px" y="0px"
	 width="151.816px" height="120.129px" viewBox="0 0 151.816 120.129" enable-background="new 0 0 151.816 120.129"
	 xml:space="preserve">
<g>
	<g>
		<polygon fill="#005597" points="49.307,35.207 49.252,38.188 55.815,38.168 55.822,41.129 61.27,41.129 61.27,38.168 
			90.29,38.168 90.29,41.248 96.331,41.248 96.377,38.168 102.752,38.125 102.752,35.217 		"/>
		<polygon fill="#005597" points="75.01,16.847 75.01,33.43 66.008,33.43 71.694,16.847 		"/>
		<polygon fill="#005597" points="77.26,16.847 77.26,33.548 85.789,33.548 80.565,16.859 		"/>
		<polygon fill="#005597" points="63.502,41.188 74.127,41.188 74.127,69 53.565,69 		"/>
		<polygon fill="#005597" points="78.44,41.188 88.252,41.188 98.627,68.938 78.565,69 		"/>
		<path fill="#005597" d="M75.922,93.011c-1.664,0-3.246-0.387-4.455-1.089L38.817,72.973c-2.482-1.44-4.421-4.816-4.415-7.688
			l0.086-37.75c0.007-2.87,1.961-6.238,4.45-7.667L71.675,1.068C72.874,0.379,74.44,0,76.086,0c1.664,0,3.245,0.386,4.454,1.088
			l32.647,18.95c2.483,1.441,4.422,4.818,4.415,7.688l-0.085,37.75c-0.007,2.871-1.962,6.239-4.45,7.667L80.332,91.943
			C79.132,92.632,77.566,93.011,75.922,93.011z M76.086,3c-1.113,0-2.176,0.244-2.917,0.669L40.433,22.47
			c-1.564,0.898-2.94,3.269-2.944,5.072l-0.086,37.75c-0.004,1.804,1.36,4.18,2.92,5.086l32.649,18.949
			c1.487,0.861,4.375,0.869,5.865,0.014l32.735-18.801c1.564-0.897,2.939-3.268,2.944-5.072l0.085-37.75
			c0.005-1.804-1.36-4.18-2.921-5.085L79.034,3.683C78.287,3.249,77.211,3,76.086,3z"/>
	</g>
	<g>
		<path fill="#005597" d="M0,101.293h4.386c1.999,0,3.449,0.284,4.353,0.853c0.903,0.569,1.354,1.474,1.354,2.714
			c0,0.842-0.198,1.533-0.593,2.073c-0.395,0.539-0.92,0.863-1.576,0.974v0.097c0.894,0.198,1.538,0.571,1.933,1.117
			c0.395,0.547,0.593,1.272,0.593,2.179c0,1.285-0.464,2.288-1.393,3.008s-2.19,1.079-3.784,1.079H0V101.293z M2.988,106.874h1.735
			c0.81,0,1.396-0.125,1.759-0.376c0.363-0.251,0.545-0.664,0.545-1.244c0-0.539-0.198-0.927-0.593-1.16
			c-0.395-0.234-1.02-0.353-1.875-0.353H2.988V106.874z M2.988,109.245v3.674h1.947c0.822,0,1.43-0.158,1.822-0.473
			c0.392-0.315,0.588-0.797,0.588-1.446c0-1.17-0.835-1.755-2.506-1.755H2.988z"/>
		<path fill="#005597" d="M22.827,109.978c0,1.755-0.463,3.127-1.389,4.117c-0.925,0.989-2.213,1.484-3.865,1.484
			c-1.034,0-1.947-0.227-2.737-0.68c-0.791-0.453-1.398-1.104-1.822-1.952c-0.424-0.849-0.636-1.838-0.636-2.97
			c0-1.761,0.459-3.129,1.378-4.105c0.919-0.978,2.211-1.466,3.875-1.466c1.035,0,1.947,0.226,2.738,0.675
			c0.79,0.45,1.398,1.096,1.822,1.938C22.615,107.861,22.827,108.848,22.827,109.978z M15.375,109.978
			c0,1.067,0.175,1.874,0.525,2.42c0.35,0.547,0.921,0.819,1.711,0.819c0.784,0,1.348-0.271,1.692-0.814s0.516-1.351,0.516-2.425
			c0-1.065-0.173-1.866-0.52-2.4c-0.348-0.532-0.917-0.799-1.707-0.799c-0.784,0-1.35,0.265-1.697,0.795
			C15.548,108.103,15.375,108.905,15.375,109.978z"/>
		<path fill="#005597" d="M31.271,104.406c0.398,0,0.729,0.029,0.993,0.087l-0.222,2.757c-0.238-0.063-0.527-0.097-0.868-0.097
			c-0.938,0-1.669,0.241-2.193,0.724c-0.524,0.481-0.786,1.156-0.786,2.023v5.485h-2.94v-10.776h2.227l0.434,1.812h0.145
			c0.334-0.604,0.786-1.09,1.354-1.46C29.984,104.592,30.603,104.406,31.271,104.406z"/>
		<path fill="#005597" d="M37.633,115.579c-1.266,0-2.26-0.492-2.984-1.476c-0.723-0.982-1.084-2.346-1.084-4.087
			c0-1.767,0.368-3.144,1.104-4.13c0.736-0.987,1.75-1.48,3.042-1.48c1.356,0,2.391,0.527,3.104,1.581h0.097
			c-0.147-0.804-0.222-1.52-0.222-2.149v-3.451h2.95v14.999h-2.255l-0.569-1.397h-0.125
			C40.021,115.049,39.002,115.579,37.633,115.579z M38.665,113.236c0.752,0,1.303-0.219,1.653-0.655s0.542-1.18,0.573-2.227v-0.319
			c0-1.156-0.178-1.985-0.535-2.486s-0.937-0.752-1.74-0.752c-0.655,0-1.165,0.277-1.528,0.834
			c-0.363,0.556-0.544,1.364-0.544,2.424c0,1.062,0.183,1.856,0.549,2.387C37.46,112.972,37.983,113.236,38.665,113.236z"/>
		<path fill="#005597" d="M51.592,115.579c-1.735,0-3.091-0.479-4.068-1.437c-0.977-0.957-1.465-2.313-1.465-4.068
			c0-1.806,0.452-3.201,1.354-4.188c0.903-0.987,2.151-1.48,3.745-1.48c1.523,0,2.709,0.435,3.557,1.302s1.272,2.065,1.272,3.595
			v1.428h-6.95c0.032,0.835,0.28,1.487,0.742,1.957c0.462,0.469,1.112,0.703,1.947,0.703c0.649,0,1.263-0.067,1.841-0.202
			c0.579-0.135,1.183-0.351,1.813-0.646v2.275c-0.514,0.257-1.063,0.448-1.648,0.574C53.147,115.516,52.434,115.579,51.592,115.579z
			 M51.177,106.498c-0.624,0-1.112,0.198-1.465,0.594c-0.354,0.395-0.556,0.955-0.607,1.682h4.125
			c-0.012-0.727-0.202-1.287-0.568-1.682C52.295,106.696,51.8,106.498,51.177,106.498z"/>
		<path fill="#005597" d="M64.393,104.406c0.398,0,0.729,0.029,0.993,0.087l-0.222,2.757c-0.237-0.063-0.526-0.097-0.867-0.097
			c-0.938,0-1.669,0.241-2.193,0.724c-0.523,0.481-0.785,1.156-0.785,2.023v5.485h-2.94v-10.776h2.227l0.434,1.812h0.145
			c0.334-0.604,0.785-1.09,1.354-1.46C63.106,104.592,63.725,104.406,64.393,104.406z"/>
		<path fill="#005597" d="M76.847,115.579c-3.354,0-5.031-1.842-5.031-5.524c0-1.831,0.456-3.23,1.369-4.198
			c0.913-0.967,2.22-1.45,3.923-1.45c1.247,0,2.365,0.245,3.354,0.732l-0.868,2.275c-0.462-0.186-0.893-0.34-1.291-0.457
			c-0.398-0.119-0.797-0.179-1.195-0.179c-1.529,0-2.294,1.086-2.294,3.257c0,2.109,0.765,3.163,2.294,3.163
			c0.565,0,1.09-0.076,1.571-0.227c0.482-0.151,0.964-0.388,1.446-0.709v2.516c-0.476,0.303-0.957,0.512-1.441,0.627
			C78.199,115.521,77.586,115.579,76.847,115.579z"/>
		<path fill="#005597" d="M88.636,104.406c0.399,0,0.73,0.029,0.993,0.087l-0.221,2.757c-0.238-0.063-0.527-0.097-0.868-0.097
			c-0.938,0-1.669,0.241-2.192,0.724c-0.524,0.481-0.786,1.156-0.786,2.023v5.485h-2.94v-10.776h2.227l0.435,1.812h0.145
			c0.334-0.604,0.786-1.09,1.354-1.46C87.35,104.592,87.969,104.406,88.636,104.406z"/>
		<path fill="#005597" d="M101.38,109.978c0,1.755-0.462,3.127-1.388,4.117c-0.926,0.989-2.214,1.484-3.866,1.484
			c-1.034,0-1.946-0.227-2.737-0.68c-0.79-0.453-1.397-1.104-1.821-1.952c-0.425-0.849-0.637-1.838-0.637-2.97
			c0-1.761,0.46-3.129,1.379-4.105c0.919-0.978,2.21-1.466,3.874-1.466c1.035,0,1.948,0.226,2.738,0.675
			c0.791,0.45,1.398,1.096,1.822,1.938C101.168,107.861,101.38,108.848,101.38,109.978z M93.929,109.978
			c0,1.067,0.175,1.874,0.525,2.42c0.351,0.547,0.92,0.819,1.711,0.819c0.784,0,1.349-0.271,1.692-0.814
			c0.343-0.543,0.515-1.351,0.515-2.425c0-1.065-0.173-1.866-0.521-2.4c-0.347-0.532-0.915-0.799-1.706-0.799
			c-0.783,0-1.35,0.265-1.696,0.795C94.103,108.103,93.929,108.905,93.929,109.978z"/>
		<path fill="#005597" d="M111.329,112.186c0,1.105-0.384,1.947-1.152,2.525c-0.768,0.579-1.916,0.868-3.445,0.868
			c-0.784,0-1.452-0.053-2.005-0.159c-0.553-0.105-1.07-0.262-1.553-0.468v-2.429c0.547,0.257,1.162,0.473,1.847,0.646
			c0.685,0.174,1.286,0.26,1.808,0.26c1.066,0,1.6-0.308,1.6-0.925c0-0.231-0.071-0.419-0.212-0.564
			c-0.142-0.144-0.386-0.308-0.732-0.491c-0.347-0.183-0.811-0.396-1.389-0.641c-0.829-0.347-1.438-0.669-1.826-0.965
			c-0.389-0.295-0.672-0.635-0.848-1.017c-0.178-0.382-0.267-0.854-0.267-1.412c0-0.958,0.372-1.698,1.114-2.222
			c0.741-0.523,1.794-0.786,3.157-0.786c1.298,0,2.561,0.283,3.788,0.848l-0.887,2.122c-0.54-0.231-1.044-0.421-1.514-0.569
			c-0.47-0.147-0.948-0.222-1.437-0.222c-0.867,0-1.302,0.235-1.302,0.703c0,0.265,0.141,0.492,0.42,0.685
			c0.279,0.193,0.892,0.479,1.837,0.858c0.841,0.341,1.458,0.659,1.85,0.954c0.393,0.296,0.682,0.637,0.868,1.022
			S111.329,111.652,111.329,112.186z"/>
		<path fill="#005597" d="M121.142,112.186c0,1.105-0.384,1.947-1.152,2.525c-0.768,0.579-1.917,0.868-3.446,0.868
			c-0.783,0-1.451-0.053-2.005-0.159c-0.552-0.105-1.07-0.262-1.552-0.468v-2.429c0.546,0.257,1.161,0.473,1.847,0.646
			c0.685,0.174,1.286,0.26,1.808,0.26c1.065,0,1.6-0.308,1.6-0.925c0-0.231-0.07-0.419-0.212-0.564
			c-0.142-0.144-0.386-0.308-0.732-0.491c-0.347-0.183-0.811-0.396-1.389-0.641c-0.829-0.347-1.438-0.669-1.826-0.965
			c-0.389-0.295-0.673-0.635-0.849-1.017c-0.177-0.382-0.266-0.854-0.266-1.412c0-0.958,0.371-1.698,1.114-2.222
			c0.741-0.523,1.794-0.786,3.157-0.786c1.298,0,2.56,0.283,3.788,0.848l-0.887,2.122c-0.54-0.231-1.045-0.421-1.514-0.569
			c-0.47-0.147-0.948-0.222-1.437-0.222c-0.867,0-1.302,0.235-1.302,0.703c0,0.265,0.14,0.492,0.42,0.685
			c0.279,0.193,0.892,0.479,1.836,0.858c0.842,0.341,1.459,0.659,1.851,0.954c0.393,0.296,0.682,0.637,0.867,1.022
			C121.049,111.193,121.142,111.652,121.142,112.186z"/>
		<path fill="#005597" d="M123.311,101.823c0-0.958,0.533-1.437,1.6-1.437c1.067,0,1.602,0.479,1.602,1.437
			c0,0.456-0.135,0.812-0.401,1.065c-0.266,0.254-0.666,0.38-1.2,0.38C123.844,103.269,123.311,102.787,123.311,101.823z
			 M126.376,115.386h-2.94v-10.776h2.94V115.386z"/>
		<path fill="#005597" d="M139.41,115.386h-2.94v-6.295c0-0.777-0.139-1.359-0.415-1.749c-0.275-0.389-0.716-0.583-1.319-0.583
			c-0.823,0-1.418,0.275-1.784,0.824c-0.366,0.55-0.55,1.46-0.55,2.732v5.07h-2.939v-10.776h2.246l0.396,1.378h0.163
			c0.328-0.521,0.779-0.914,1.354-1.181c0.575-0.268,1.229-0.4,1.962-0.4c1.253,0,2.204,0.34,2.853,1.018
			c0.65,0.678,0.975,1.656,0.975,2.935V115.386z"/>
		<path fill="#005597" d="M151.816,104.609v1.494l-1.688,0.434c0.309,0.481,0.463,1.021,0.463,1.62c0,1.156-0.403,2.057-1.209,2.703
			c-0.807,0.646-1.928,0.969-3.36,0.969l-0.529-0.029l-0.435-0.048c-0.302,0.231-0.452,0.489-0.452,0.771
			c0,0.424,0.539,0.636,1.619,0.636h1.831c1.183,0,2.084,0.254,2.704,0.762s0.931,1.253,0.931,2.236c0,1.26-0.525,2.237-1.576,2.931
			c-1.052,0.694-2.56,1.041-4.526,1.041c-1.503,0-2.652-0.262-3.446-0.785c-0.793-0.523-1.19-1.258-1.19-2.203
			c0-0.649,0.202-1.192,0.607-1.629c0.405-0.438,0.999-0.749,1.783-0.936c-0.302-0.128-0.565-0.339-0.79-0.631
			c-0.226-0.292-0.338-0.603-0.338-0.93c0-0.412,0.119-0.754,0.357-1.027c0.237-0.273,0.581-0.541,1.03-0.806
			c-0.564-0.243-1.013-0.636-1.344-1.176c-0.331-0.539-0.496-1.176-0.496-1.908c0-1.177,0.382-2.086,1.146-2.728
			c0.765-0.643,1.856-0.965,3.277-0.965c0.302,0,0.66,0.027,1.074,0.082c0.415,0.055,0.68,0.095,0.796,0.121H151.816z
			 M143.497,116.909c0,0.404,0.194,0.723,0.584,0.954c0.389,0.231,0.934,0.347,1.633,0.347c1.055,0,1.88-0.144,2.478-0.433
			c0.599-0.29,0.896-0.685,0.896-1.187c0-0.404-0.177-0.685-0.53-0.839c-0.353-0.154-0.899-0.23-1.639-0.23h-1.522
			c-0.54,0-0.991,0.127-1.354,0.38C143.678,116.155,143.497,116.491,143.497,116.909z M144.567,108.138
			c0,0.584,0.134,1.047,0.399,1.388c0.267,0.34,0.674,0.51,1.22,0.51c0.553,0,0.958-0.17,1.215-0.51
			c0.257-0.341,0.385-0.804,0.385-1.388c0-1.299-0.532-1.948-1.6-1.948C145.107,106.189,144.567,106.839,144.567,108.138z"/>
	</g>
</g>
</svg>
