<?xml version="1.0" encoding="utf-8"?>
<!-- Generator: Adobe Illustrator 23.1.0, SVG Export Plug-In . SVG Version: 6.00 Build 0)  -->
<svg version="1.1" id="Layer_1" xmlns="http://www.w3.org/2000/svg" xmlns:xlink="http://www.w3.org/1999/xlink" x="0px" y="0px"
	 viewBox="0 0 1842.2 491.9" style="enable-background:new 0 0 1842.2 491.9;" xml:space="preserve">
<style type="text/css">
	.st0{fill:#005597;}
	.st1{fill:#FFFFFF;}
	.st2{fill:#BFE5FB;}
	.st3{fill:#00AFEA;}
	.st4{fill:#164194;}
	.st5{fill:#FFED00;}
	.st6{fill:none;stroke:#164194;stroke-miterlimit:10;}
	.st7{fill:url(#SVGID_1_);}
	.st8{fill:url(#SVGID_2_);}
	.st9{fill:url(#SVGID_3_);}
	.st10{fill:#E0E0DF;}
	.st11{fill:url(#SVGID_4_);}
	.st12{fill:url(#SVGID_5_);}
	.st13{fill:url(#SVGID_6_);}
	.st14{fill:url(#SVGID_7_);}
	.st15{fill:url(#SVGID_8_);}
	.st16{fill:url(#SVGID_9_);}
	.st17{fill:#FFFFFF;stroke:#706F6F;stroke-miterlimit:10;}
	.st18{fill:url(#SVGID_10_);}
	.st19{fill:url(#SVGID_11_);}
	.st20{fill:url(#SVGID_12_);}
	.st21{fill:url(#SVGID_13_);}
	.st22{fill:url(#SVGID_14_);}
	.st23{fill:url(#SVGID_15_);}
	.st24{fill:url(#SVGID_16_);}
	.st25{fill:url(#SVGID_17_);}
	.st26{fill:url(#SVGID_18_);}
	.st27{fill:url(#SVGID_19_);}
	.st28{fill:url(#SVGID_20_);}
	.st29{fill:url(#SVGID_21_);}
	.st30{fill:#016A88;}
	.st31{fill:#B2B2B2;}
	.st32{fill:url(#SVGID_22_);}
	.st33{fill:url(#SVGID_23_);}
	.st34{fill:url(#SVGID_24_);}
	.st35{fill:url(#SVGID_25_);}
	.st36{fill:url(#SVGID_26_);}
	.st37{fill:url(#SVGID_27_);}
</style>
<g>
	<g>
		<linearGradient id="SVGID_1_" gradientUnits="userSpaceOnUse" x1="1765.4597" y1="467.5379" x2="1648.428" y2="336.415">
			<stop  offset="0" style="stop-color:#008CB5"/>
			<stop  offset="0.9138" style="stop-color:#006988"/>
		</linearGradient>
		<polygon class="st7" points="1631,377.9 1733.2,491.3 1841.1,491.3 1685,318 		"/>
		<linearGradient id="SVGID_2_" gradientUnits="userSpaceOnUse" x1="1452.9012" y1="116.1677" x2="1574.4415" y2="241.5564">
			<stop  offset="0" style="stop-color:#008CB5"/>
			<stop  offset="0.7576" style="stop-color:#006988"/>
		</linearGradient>
		<polygon class="st8" points="1564,175.6 1497.2,101.4 1389.4,101.6 1510.1,235.6 		"/>
		<linearGradient id="SVGID_3_" gradientUnits="userSpaceOnUse" x1="1522.5935" y1="359.1555" x2="1835.2932" y2="12.0879">
			<stop  offset="0" style="stop-color:#33A3C4"/>
			<stop  offset="0.7085" style="stop-color:#52AE32"/>
		</linearGradient>
		<path class="st9" d="M1681.5,58.3l41.5,19.4l-348,370.5h136.7l270.7-316.6l23,38l36.7-165.5L1681.5,58.3z M1470.9,427.3h-21.3
			l33-36.7h21.3L1470.9,427.3z M1537,353.9h-21.3l33-36.7h21.3L1537,353.9z M1603.1,280.6h-21.3l33-36.7h21.3L1603.1,280.6z
			 M1669.1,207.2h-21.3l33-36.7h21.3L1669.1,207.2z M1735.2,133.8h-21.3l33-36.7h21.3L1735.2,133.8z"/>
	</g>
	<g>
		<path class="st30" d="M118.3,177c-7.7-1.8-16.9-2.8-27.5-2.8c-10.6,0-17.7,2.1-21.2,6.2c-3.5,4.1-5.2,10.9-5.2,20.2v4.1h42.1
			l-2.5,26.4H64.4v165.6L25.9,393V231.2L0,229.6V207l26.1-1.9v-8c0-18.9,5.1-32.6,15.4-41.3c10.3-8.6,26.2-12.9,47.9-12.9
			c11,0,23.3,2.2,36.9,6.6L118.3,177z"/>
		<path class="st30" d="M247.3,341c-9.4,5.1-19.6,7.7-30.7,7.7c-11.1,0-19.3-4.2-24.6-12.7c-10.6,8.8-23.1,13.2-37.4,13.2
			c-14.3,0-25.1-3.6-32.5-10.9c-7.3-7.2-11-17.1-11-29.6c0-8.3,1.7-15.3,5.2-21.2c3.5-5.9,8-10.2,13.5-12.9
			c10.1-4.8,20.6-7.1,31.5-7.1c10.9,0,19.7,0.3,26.3,0.8v-13.5c0-9.5-1.9-15.7-5.8-18.4c-3.9-2.8-10.4-4.1-19.7-4.1
			c-9.3,0-19.7,1.9-31.2,5.8l-8-24.2c6.8-4,15.1-7.1,24.9-9.2c9.8-2.1,18.2-3.2,25.2-3.2c18.7,0,32,4,40,12c8,8,12,21.6,12,40.8
			v57.8c0,5.1,2.3,7.7,6.9,7.7c2.4,0,5.8-0.6,10.2-1.7L247.3,341z M165,323.6c7.7,0,15.2-2.4,22.6-7.1v-28.9
			c-5.1-0.4-9.6-0.6-13.5-0.6c-18.2,0-27.2,5.9-27.2,17.6C146.9,317.3,152.9,323.6,165,323.6z"/>
		<path class="st30" d="M310.8,231.8c-12.5,0-18.7,4.1-18.7,12.4c0,4.4,2.1,8.2,6.3,11.3c4.2,3.1,9.3,5.8,15.3,8.1
			c6,2.3,11.9,4.9,17.9,7.7c6,2.8,11,6.9,15.3,12.2c4.2,5.3,6.3,11.8,6.3,19.5c0,13.8-4.7,24.9-14,33.4
			c-9.4,8.5-23.1,12.8-41.3,12.8c-8.3,0-16.9-0.9-26-2.8c-9.1-1.8-15.7-3.9-19.9-6.3l9.4-27.5c14.3,4.8,27.2,7.2,38.6,7.2
			c11.5,0,17.2-4.5,17.2-13.5c0-3.9-2.1-7.3-6.3-10.5c-4.2-3.1-9.3-6-15.3-8.7c-6-2.7-11.9-5.5-17.9-8.7c-6-3.1-11-7.5-15.3-13.2
			c-4.2-5.7-6.3-12.3-6.3-19.8c0-14.1,4.7-24.9,14-32.5c9.4-7.5,22.7-11.3,40.2-11.3c17.4,0,31.1,2.8,41,8.5l-9.1,27.2
			C329.5,233.7,319,231.8,310.8,231.8z"/>
		<path class="st30" d="M389.7,300.3v-69l-24.8-1.7V207l25.6-2.2v-32.2l38.5-3.3v35.2h40.2l-2.2,26.7h-38.2v72.6
			c0,5.3,0.8,9.1,2.5,11.4c1.7,2.3,5.1,3.4,10.5,3.4c5.3,0,11.3-0.8,17.9-2.5l5.8,27.2c-9,3.9-18.1,5.8-27.4,5.8
			c-9.3,0-16.2-0.5-20.9-1.6c-4.7-1.1-8.5-2.4-11.6-3.9c-3-1.5-5.6-3.6-7.7-6.5c-2.1-2.8-3.7-5.4-4.7-7.6c-1-2.2-1.8-5.3-2.3-9.4
			C390.1,314.8,389.7,308.2,389.7,300.3z"/>
		<path class="st30" d="M626.8,152.8v60.8c3.9-3.1,9-5.8,15.5-8.1c6.5-2.3,13.1-3.4,19.7-3.4c15,0,27.4,5.7,37.1,17.2
			c9.7,11.5,14.6,27.8,14.6,49.1c0,26.2-5.3,46.3-16,60.1c-10.6,13.8-27.7,20.8-51.2,20.8c-10.1,0-20.9-1-32.5-2.9
			c-11.6-1.9-20.2-4.2-25.9-6.7V152.8H626.8z M641.1,318.1c12.7,0,21.5-3.8,26.4-11.6c5-7.7,7.4-18.9,7.4-33.6
			c0-14.7-2-24.9-5.9-30.8c-3.9-5.9-9.9-8.8-18-8.8c-8.1,0-16.1,2.5-24.2,7.4v75.9C631.8,317.7,636.5,318.1,641.1,318.1z"/>
		<path class="st30" d="M837.2,331.5c-11.4,11.8-26.3,17.7-44.8,17.7c-18.5,0-33.2-5.9-44.1-17.6c-10.9-11.7-16.4-30.3-16.4-55.8
			c0-25.5,5.6-44.1,16.9-56c11.3-11.8,26.1-17.7,44.4-17.7c40.7,0,61.1,24.5,61.1,73.4C854.3,301,848.6,319.7,837.2,331.5z
			 M816.8,275.1c0-16.8-2-28.2-6.1-34.2c-4-6.1-9.9-9.1-17.7-9.1c-7.8,0-13.8,3-17.9,9.1s-6.2,17.7-6.2,34.9c0,29.3,8,44,23.9,44
			c7.5,0,13.4-3.3,17.6-9.8C814.7,303.5,816.8,291.9,816.8,275.1z"/>
		<path class="st30" d="M948,232.9c-15,0-25.6,4.3-31.6,12.9v99.8h-38.5V204.6h31.9l3,17.9c10.6-13.9,24.2-20.9,40.7-20.9
			c4.6,0,8.8,0.5,12.7,1.4l-6.3,31.6C955.8,233.4,951.9,232.9,948,232.9z"/>
		<path class="st30" d="M972.5,278.5c0-51,19.9-76.5,59.7-76.5c10.1,0,18.2,1.7,24.5,5v-56.7h38.8v197.2h-31.9l-2.2-10.5
			c-10.3,7.3-22.5,11-36.6,11c-17.2,0-30.3-6.2-39.1-18.7C976.9,317,972.5,300,972.5,278.5z M1036.1,232.3
			c-17.8,0-26.7,15.1-26.7,45.4c0,27.7,8.3,41.5,24.8,41.5c8.4,0,16-2.1,22.8-6.3v-76.7C1050.9,233.6,1043.9,232.3,1036.1,232.3z"/>
		<path class="st30" d="M1155.1,279.1c0.4,27.5,12.5,41.3,36.3,41.3c11.2,0,22.3-2.1,33.3-6.3l6.6,26.1c-14.1,6.1-29.8,9.1-47,9.1
			c-43.5,0-65.2-25.6-65.2-76.7c0-20.2,5.4-36.9,16.2-50.3c10.8-13.4,26.4-20.1,46.8-20.1c16.3,0,28.9,4.4,37.8,13.1
			c8.9,8.7,13.3,20.9,13.3,36.4c0,9.2-1.2,18.3-3.6,27.5H1155.1z M1202.4,258.2v-1.6c0-18.2-6.4-27.2-19.3-27.2
			c-15.4,0-24.7,9.6-27.8,28.9H1202.4z"/>
		<path class="st30" d="M1326.8,232.9c-15,0-25.6,4.3-31.6,12.9v99.8h-38.5V204.6h31.9l3,17.9c10.6-13.9,24.2-20.9,40.7-20.9
			c4.6,0,8.8,0.5,12.7,1.4l-6.3,31.6C1334.6,233.4,1330.6,232.9,1326.8,232.9z"/>
	</g>
</g>
</svg>
