<?xml version="1.0" encoding="utf-8"?>
<!-- Generator: Adobe Illustrator 15.1.0, SVG Export Plug-In . SVG Version: 6.00 Build 0)  -->
<!DOCTYPE svg PUBLIC "-//W3C//DTD SVG 1.1//EN" "http://www.w3.org/Graphics/SVG/1.1/DTD/svg11.dtd">
<svg version="1.1" id="Layer_1" xmlns="http://www.w3.org/2000/svg" xmlns:xlink="http://www.w3.org/1999/xlink" x="0px" y="0px"
	 width="158px" height="121.5px" viewBox="0 0 158 121.5" enable-background="new 0 0 158 121.5" xml:space="preserve">
<g>
	<polygon fill="#005597" points="51.784,35.832 51.729,38.813 58.292,38.793 58.298,41.754 63.747,41.754 63.747,38.793 
		92.766,38.793 92.766,41.873 98.807,41.873 98.854,38.793 105.229,38.75 105.229,35.842 	"/>
	<polygon fill="#005597" points="77.487,17.472 77.487,34.055 68.485,34.055 74.17,17.472 	"/>
	<polygon fill="#005597" points="79.737,17.472 79.737,34.173 88.265,34.173 83.042,17.484 	"/>
	<polygon fill="#005597" points="65.979,41.813 76.604,41.813 76.604,69.625 56.042,69.625 	"/>
	<polygon fill="#005597" points="80.917,41.813 90.729,41.813 101.104,69.563 81.042,69.625 	"/>
	<path fill="#005597" d="M78.398,93.636c-1.664,0-3.246-0.387-4.455-1.089L41.294,73.598c-2.482-1.44-4.421-4.816-4.415-7.688
		l0.086-37.75c0.007-2.87,1.961-6.238,4.45-7.667L74.151,1.693c1.199-0.688,2.766-1.068,4.411-1.068
		c1.664,0,3.245,0.386,4.454,1.088l32.647,18.95c2.483,1.441,4.422,4.818,4.415,7.688l-0.085,37.75
		c-0.007,2.871-1.962,6.239-4.45,7.667L82.808,92.568C81.609,93.257,80.042,93.636,78.398,93.636z M78.563,3.625
		c-1.113,0-2.176,0.244-2.917,0.669L42.91,23.095c-1.564,0.898-2.94,3.269-2.944,5.072l-0.086,37.75
		c-0.004,1.804,1.36,4.18,2.92,5.086l32.649,18.949c1.487,0.861,4.375,0.869,5.865,0.014l32.735-18.801
		c1.564-0.897,2.939-3.268,2.944-5.072l0.085-37.75c0.005-1.804-1.36-4.18-2.921-5.085L81.51,4.308
		C80.763,3.874,79.688,3.625,78.563,3.625z"/>
</g>
<g>
	<path fill="#005597" d="M2.612,117.322H0.137v-11.804h6.801v2.051H2.612v3.044h4.025v2.043H2.612V117.322z"/>
	<path fill="#005597" d="M14.828,117.322l-0.479-1.228h-0.065c-0.417,0.522-0.846,0.885-1.287,1.086
		c-0.441,0.202-1.016,0.303-1.725,0.303c-0.871,0-1.557-0.247-2.058-0.742s-0.75-1.2-0.75-2.115c0-0.958,0.336-1.665,1.01-2.119
		c0.674-0.455,1.689-0.707,3.048-0.755l1.575-0.049v-0.396c0-0.915-0.471-1.372-1.413-1.372c-0.725,0-1.577,0.218-2.557,0.653
		l-0.82-1.663c1.044-0.543,2.203-0.815,3.474-0.815c1.217,0,2.151,0.264,2.8,0.791c0.649,0.528,0.974,1.33,0.974,2.406v6.015H14.828
		z M14.097,113.141l-0.958,0.032c-0.72,0.021-1.255,0.15-1.607,0.388c-0.352,0.236-0.528,0.597-0.528,1.081
		c0,0.694,0.4,1.042,1.202,1.042c0.573,0,1.032-0.164,1.375-0.493c0.344-0.328,0.516-0.764,0.516-1.308V113.141z"/>
	<path fill="#005597" d="M25.436,114.642c0,0.926-0.323,1.631-0.97,2.115s-1.614,0.727-2.902,0.727c-0.66,0-1.223-0.044-1.688-0.133
		s-0.901-0.22-1.307-0.392v-2.034c0.459,0.215,0.978,0.396,1.554,0.541c0.576,0.145,1.083,0.218,1.522,0.218
		c0.898,0,1.347-0.259,1.347-0.775c0-0.193-0.06-0.352-0.179-0.473s-0.325-0.258-0.617-0.411c-0.292-0.153-0.682-0.332-1.169-0.537
		c-0.698-0.291-1.21-0.56-1.538-0.808c-0.327-0.247-0.565-0.531-0.714-0.852s-0.223-0.714-0.223-1.183
		c0-0.802,0.313-1.422,0.938-1.861c0.625-0.438,1.511-0.657,2.658-0.657c1.093,0,2.156,0.236,3.19,0.71l-0.747,1.776
		c-0.455-0.193-0.879-0.353-1.274-0.477c-0.395-0.123-0.798-0.186-1.209-0.186c-0.73,0-1.096,0.196-1.096,0.59
		c0,0.221,0.118,0.411,0.353,0.573c0.235,0.161,0.751,0.4,1.546,0.718c0.708,0.286,1.228,0.552,1.558,0.8
		c0.33,0.247,0.574,0.532,0.73,0.855C25.357,113.811,25.436,114.195,25.436,114.642z"/>
	<path fill="#005597" d="M31.19,115.521c0.433,0,0.952-0.094,1.559-0.282v1.833c-0.617,0.274-1.375,0.411-2.273,0.411
		c-0.99,0-1.711-0.249-2.163-0.746c-0.452-0.498-0.678-1.245-0.678-2.241v-4.352H26.45v-1.041l1.364-0.823l0.714-1.905h1.583v1.921
		h2.541v1.849h-2.541v4.352c0,0.351,0.099,0.608,0.296,0.775C30.604,115.438,30.866,115.521,31.19,115.521z"/>
	<path fill="#005597" d="M39.632,108.127c1.071,0,1.91,0.415,2.516,1.247s0.909,1.972,0.909,3.419c0,1.491-0.313,2.646-0.938,3.464
		s-1.476,1.227-2.553,1.227c-1.066,0-1.902-0.385-2.508-1.154h-0.171l-0.414,0.993h-1.891V104.76h2.476v2.923
		c0,0.371-0.033,0.966-0.098,1.784h0.098C37.638,108.573,38.496,108.127,39.632,108.127z M38.836,110.097
		c-0.611,0-1.058,0.187-1.339,0.561c-0.281,0.375-0.427,0.992-0.438,1.854v0.267c0,0.969,0.145,1.663,0.434,2.083
		c0.29,0.419,0.748,0.629,1.375,0.629c0.509,0,0.913-0.232,1.214-0.698c0.3-0.465,0.45-1.143,0.45-2.03s-0.151-1.554-0.455-1.998
		S39.361,110.097,38.836,110.097z"/>
	<path fill="#005597" d="M53.349,112.793c0,1.47-0.39,2.619-1.168,3.447c-0.779,0.829-1.864,1.243-3.255,1.243
		c-0.871,0-1.64-0.189-2.305-0.568c-0.666-0.38-1.177-0.925-1.534-1.636c-0.357-0.71-0.536-1.539-0.536-2.486
		c0-1.475,0.387-2.621,1.161-3.439c0.774-0.817,1.861-1.227,3.263-1.227c0.871,0,1.639,0.188,2.305,0.564
		c0.666,0.377,1.177,0.918,1.534,1.623C53.17,111.02,53.349,111.846,53.349,112.793z M47.075,112.793
		c0,0.894,0.147,1.569,0.442,2.026c0.295,0.458,0.775,0.687,1.44,0.687c0.66,0,1.135-0.228,1.425-0.683
		c0.289-0.454,0.434-1.131,0.434-2.03c0-0.894-0.146-1.563-0.438-2.01c-0.292-0.447-0.771-0.671-1.437-0.671
		c-0.66,0-1.136,0.223-1.428,0.666C47.221,111.223,47.075,111.895,47.075,112.793z"/>
	<path fill="#005597" d="M60.458,108.127c0.335,0,0.614,0.024,0.836,0.072l-0.187,2.31c-0.2-0.055-0.444-0.081-0.73-0.081
		c-0.79,0-1.406,0.202-1.847,0.605s-0.661,0.969-0.661,1.695v4.594h-2.476v-9.026h1.875l0.366,1.519h0.122
		c0.281-0.506,0.662-0.914,1.14-1.224C59.375,108.281,59.896,108.127,60.458,108.127z"/>
	<path fill="#005597" d="M65.816,117.483c-1.066,0-1.903-0.411-2.512-1.235c-0.608-0.823-0.913-1.964-0.913-3.423
		c0-1.479,0.31-2.633,0.93-3.459c0.619-0.826,1.473-1.239,2.561-1.239c1.142,0,2.013,0.441,2.614,1.324h0.081
		c-0.125-0.673-0.187-1.273-0.187-1.801v-2.891h2.484v12.563h-1.899l-0.479-1.171h-0.106
		C67.826,117.04,66.969,117.483,65.816,117.483z M66.685,115.521c0.633,0,1.097-0.183,1.392-0.549
		c0.294-0.365,0.456-0.987,0.483-1.864v-0.267c0-0.969-0.15-1.663-0.451-2.083s-0.789-0.63-1.465-0.63
		c-0.552,0-0.981,0.232-1.287,0.698s-0.458,1.143-0.458,2.03c0,0.889,0.154,1.555,0.462,1.998
		C65.67,115.3,66.111,115.521,66.685,115.521z"/>
	<path fill="#005597" d="M77.569,117.483c-1.461,0-2.603-0.4-3.425-1.202c-0.823-0.803-1.234-1.938-1.234-3.407
		c0-1.513,0.38-2.682,1.141-3.508s1.811-1.239,3.153-1.239c1.282,0,2.28,0.363,2.995,1.09c0.714,0.727,1.071,1.73,1.071,3.011v1.195
		h-5.852c0.027,0.699,0.235,1.246,0.625,1.639c0.39,0.394,0.936,0.59,1.639,0.59c0.547,0,1.063-0.057,1.551-0.17
		c0.486-0.113,0.995-0.293,1.525-0.541v1.905c-0.433,0.216-0.896,0.376-1.388,0.48C78.878,117.432,78.277,117.483,77.569,117.483z
		 M77.22,109.879c-0.525,0-0.936,0.165-1.234,0.496c-0.297,0.331-0.468,0.801-0.511,1.409h3.474
		c-0.011-0.608-0.171-1.078-0.479-1.409C78.161,110.044,77.745,109.879,77.22,109.879z"/>
	<path fill="#005597" d="M88.347,108.127c0.336,0,0.614,0.024,0.836,0.072l-0.187,2.31c-0.2-0.055-0.443-0.081-0.73-0.081
		c-0.79,0-1.405,0.202-1.847,0.605s-0.661,0.969-0.661,1.695v4.594h-2.476v-9.026h1.875l0.365,1.519h0.121
		c0.281-0.506,0.662-0.914,1.141-1.224C87.264,108.281,87.785,108.127,88.347,108.127z"/>
	<path fill="#005597" d="M94.516,117.483c-2.824,0-4.236-1.542-4.236-4.626c0-1.533,0.384-2.706,1.152-3.516
		c0.769-0.811,1.869-1.215,3.304-1.215c1.049,0,1.991,0.204,2.824,0.613l-0.73,1.905c-0.39-0.156-0.752-0.284-1.088-0.384
		c-0.335-0.1-0.671-0.149-1.006-0.149c-1.288,0-1.933,0.91-1.933,2.729c0,1.766,0.645,2.647,1.933,2.647
		c0.476,0,0.917-0.063,1.322-0.189c0.406-0.126,0.812-0.324,1.218-0.594v2.107c-0.4,0.253-0.805,0.428-1.214,0.525
		C95.654,117.436,95.138,117.483,94.516,117.483z"/>
	<path fill="#005597" d="M104.442,108.127c0.336,0,0.614,0.024,0.836,0.072l-0.187,2.31c-0.2-0.055-0.443-0.081-0.73-0.081
		c-0.79,0-1.405,0.202-1.847,0.605s-0.661,0.969-0.661,1.695v4.594h-2.476v-9.026h1.875l0.365,1.519h0.121
		c0.281-0.506,0.662-0.914,1.141-1.224C103.359,108.281,103.879,108.127,104.442,108.127z"/>
	<path fill="#005597" d="M115.172,112.793c0,1.47-0.39,2.619-1.169,3.447c-0.779,0.829-1.864,1.243-3.255,1.243
		c-0.871,0-1.639-0.189-2.305-0.568c-0.665-0.38-1.177-0.925-1.534-1.636c-0.357-0.71-0.535-1.539-0.535-2.486
		c0-1.475,0.387-2.621,1.16-3.439c0.773-0.817,1.861-1.227,3.263-1.227c0.871,0,1.64,0.188,2.306,0.564
		c0.665,0.377,1.177,0.918,1.534,1.623C114.994,111.02,115.172,111.846,115.172,112.793z M108.898,112.793
		c0,0.894,0.147,1.569,0.442,2.026c0.295,0.458,0.775,0.687,1.441,0.687c0.66,0,1.135-0.228,1.424-0.683
		c0.29-0.454,0.435-1.131,0.435-2.03c0-0.894-0.146-1.563-0.438-2.01c-0.292-0.447-0.771-0.671-1.437-0.671
		c-0.66,0-1.136,0.223-1.429,0.666C109.044,111.223,108.898,111.895,108.898,112.793z"/>
	<path fill="#005597" d="M123.549,114.642c0,0.926-0.323,1.631-0.971,2.115c-0.646,0.484-1.613,0.727-2.901,0.727
		c-0.66,0-1.223-0.044-1.688-0.133c-0.465-0.089-0.9-0.22-1.307-0.392v-2.034c0.46,0.215,0.979,0.396,1.555,0.541
		c0.576,0.145,1.083,0.218,1.521,0.218c0.898,0,1.348-0.259,1.348-0.775c0-0.193-0.06-0.352-0.179-0.473s-0.324-0.258-0.617-0.411
		c-0.292-0.153-0.682-0.332-1.168-0.537c-0.698-0.291-1.211-0.56-1.538-0.808c-0.328-0.247-0.565-0.531-0.715-0.852
		c-0.148-0.32-0.223-0.714-0.223-1.183c0-0.802,0.313-1.422,0.938-1.861c0.625-0.438,1.511-0.657,2.658-0.657
		c1.093,0,2.156,0.236,3.189,0.71l-0.747,1.776c-0.454-0.193-0.879-0.353-1.274-0.477c-0.395-0.123-0.798-0.186-1.209-0.186
		c-0.73,0-1.096,0.196-1.096,0.59c0,0.221,0.118,0.411,0.354,0.573c0.235,0.161,0.75,0.4,1.546,0.718
		c0.709,0.286,1.229,0.552,1.559,0.8c0.33,0.247,0.573,0.532,0.73,0.855C123.47,113.811,123.549,114.195,123.549,114.642z"/>
	<path fill="#005597" d="M131.812,114.642c0,0.926-0.323,1.631-0.971,2.115c-0.646,0.484-1.613,0.727-2.901,0.727
		c-0.66,0-1.223-0.044-1.688-0.133c-0.465-0.089-0.9-0.22-1.307-0.392v-2.034c0.46,0.215,0.979,0.396,1.555,0.541
		c0.576,0.145,1.083,0.218,1.521,0.218c0.898,0,1.348-0.259,1.348-0.775c0-0.193-0.06-0.352-0.179-0.473s-0.324-0.258-0.617-0.411
		c-0.292-0.153-0.682-0.332-1.168-0.537c-0.698-0.291-1.211-0.56-1.538-0.808c-0.328-0.247-0.565-0.531-0.715-0.852
		c-0.148-0.32-0.223-0.714-0.223-1.183c0-0.802,0.313-1.422,0.938-1.861c0.625-0.438,1.511-0.657,2.658-0.657
		c1.093,0,2.156,0.236,3.189,0.71l-0.747,1.776c-0.454-0.193-0.879-0.353-1.274-0.477c-0.395-0.123-0.798-0.186-1.209-0.186
		c-0.73,0-1.096,0.196-1.096,0.59c0,0.221,0.118,0.411,0.354,0.573c0.235,0.161,0.75,0.4,1.546,0.718
		c0.709,0.286,1.229,0.552,1.559,0.8c0.33,0.247,0.573,0.532,0.73,0.855C131.733,113.811,131.812,114.195,131.812,114.642z"/>
	<path fill="#005597" d="M133.638,105.963c0-0.802,0.449-1.203,1.347-1.203c0.898,0,1.348,0.401,1.348,1.203
		c0,0.383-0.112,0.68-0.337,0.893c-0.225,0.212-0.562,0.318-1.011,0.318C134.087,107.174,133.638,106.771,133.638,105.963z
		 M136.219,117.322h-2.476v-9.026h2.476V117.322z"/>
	<path fill="#005597" d="M147.192,117.322h-2.476v-5.271c0-0.651-0.116-1.14-0.349-1.466c-0.233-0.325-0.604-0.488-1.112-0.488
		c-0.692,0-1.193,0.23-1.501,0.69c-0.309,0.46-0.463,1.223-0.463,2.288v4.247h-2.476v-9.026h1.891l0.333,1.155h0.138
		c0.276-0.437,0.656-0.766,1.141-0.989s1.035-0.335,1.652-0.335c1.055,0,1.855,0.283,2.402,0.852
		c0.546,0.567,0.819,1.388,0.819,2.458V117.322z"/>
	<path fill="#005597" d="M157.638,108.296v1.252l-1.421,0.363c0.26,0.403,0.39,0.855,0.39,1.356c0,0.969-0.34,1.724-1.019,2.265
		c-0.679,0.54-1.622,0.811-2.828,0.811l-0.446-0.023l-0.365-0.041c-0.255,0.194-0.382,0.409-0.382,0.646
		c0,0.354,0.454,0.532,1.363,0.532h1.542c0.996,0,1.755,0.213,2.277,0.638c0.521,0.426,0.783,1.05,0.783,1.873
		c0,1.056-0.442,1.873-1.327,2.455c-0.885,0.581-2.155,0.871-3.811,0.871c-1.267,0-2.233-0.219-2.902-0.657
		c-0.668-0.439-1.002-1.054-1.002-1.845c0-0.544,0.17-0.999,0.511-1.365c0.342-0.365,0.842-0.627,1.502-0.782
		c-0.254-0.108-0.477-0.284-0.665-0.529c-0.189-0.245-0.284-0.505-0.284-0.779c0-0.344,0.1-0.631,0.3-0.859s0.49-0.453,0.868-0.674
		c-0.476-0.205-0.854-0.533-1.132-0.985s-0.418-0.985-0.418-1.599c0-0.985,0.322-1.746,0.966-2.285
		c0.644-0.538,1.563-0.807,2.76-0.807c0.254,0,0.556,0.022,0.905,0.068c0.349,0.046,0.572,0.079,0.669,0.101H157.638z
		 M150.633,118.598c0,0.339,0.164,0.605,0.491,0.8c0.327,0.193,0.786,0.29,1.376,0.29c0.887,0,1.582-0.121,2.086-0.363
		c0.503-0.242,0.755-0.573,0.755-0.993c0-0.339-0.149-0.573-0.446-0.702c-0.298-0.129-0.758-0.193-1.38-0.193h-1.283
		c-0.454,0-0.834,0.106-1.14,0.318C150.787,117.967,150.633,118.248,150.633,118.598z M151.535,111.251
		c0,0.49,0.112,0.878,0.337,1.163c0.224,0.285,0.566,0.428,1.026,0.428c0.465,0,0.806-0.143,1.022-0.428s0.325-0.673,0.325-1.163
		c0-1.087-0.449-1.631-1.348-1.631C151.989,109.62,151.535,110.164,151.535,111.251z"/>
</g>
</svg>
